<svg xmlns="http://www.w3.org/2000/svg" width="20" height="20"><g fill="none" fill-rule="evenodd" class="form"><path fill="#FF832A" fill-rule="nonzero" d="M15.886 1a2.545 2.545 0 0 1 2.543 2.543v13.886c0 1.4-1.142 2.542-2.543 2.542H3.543A2.545 2.545 0 0 1 1 17.43V3.543A2.542 2.542 0 0 1 3.543 1zm0 2H3.543c-.3 0-.543.243-.543.543v13.886c0 .298.244.542.543.542h12.343a.547.547 0 0 0 .543-.542V3.543A.545.545 0 0 0 15.886 3zM13.57 9.486a1 1 0 0 1 .117 1.993l-.117.007H5.857a1 1 0 0 1-.116-1.994l.116-.006h7.714zm0-3.857a1 1 0 0 1 .117 1.993l-.117.007H5.857a1 1 0 0 1-.116-1.994l.116-.006h7.714z" class="form__combined-shape"/></g></svg>