<svg xmlns="http://www.w3.org/2000/svg" width="20" height="20"><g fill="none" fill-rule="evenodd" class="mail"><path fill="#FF832A" fill-rule="nonzero" d="M16.805 2a2.482 2.482 0 0 1 2.48 2.48v10.364a2.485 2.485 0 0 1-2.48 2.48H3.481A2.482 2.482 0 0 1 1 14.845V4.481A2.48 2.48 0 0 1 3.48 2zm.48 6.202l-5.487 2.535a3.962 3.962 0 0 1-3.102.089l-.213-.09L3 8.206v6.638c0 .235.171.432.394.473l.087.008h13.324c.262 0 .48-.219.48-.48V8.201zM16.805 4H3.481A.48.48 0 0 0 3 4.48v1.524l6.32 2.915c.465.214.987.238 1.466.072l.177-.071L17.285 6V4.48a.483.483 0 0 0-.394-.472L16.805 4z" class="mail__combined-shape"/></g></svg>