<svg xmlns="http://www.w3.org/2000/svg" width="20" height="20"><g fill="none" fill-rule="evenodd" class="text"><path fill="#FF832A" fill-rule="nonzero" d="M15.6 1C16.946 1 18 2.16 18 3.543v13.886c0 1.38-1.055 2.542-2.4 2.542H4.4c-1.348 0-2.4-1.161-2.4-2.542V3.543C2 2.159 3.051 1 4.4 1zm0 2H4.4c-.198 0-.4.222-.4.543v13.886c0 .318.203.542.4.542h11.2c.195 0 .4-.226.4-.542V3.543c0-.32-.203-.543-.4-.543zm-4.171 1.343a1 1 0 0 1 .116 1.993l-.116.007h-3a1 1 0 0 1-.117-1.993l.117-.007h3z" class="text__combined-shape"/></g></svg>